<?xml version="1.0" encoding="UTF-8"?>
<svg width="35px" height="24px" viewBox="0 0 35 24" version="1.1" xmlns="http://www.w3.org/2000/svg" xmlns:xlink="http://www.w3.org/1999/xlink">
    <!-- Generator: Sketch 63.1 (92452) - https://sketch.com -->
    <title>logo uptoo</title>
    <desc>Created with Sketch.</desc>
    <g id="Welcome" stroke="none" stroke-width="1" fill="none" fill-rule="evenodd">
        <g id="Group-3" transform="translate(-47.000000, -57.000000)" fill="#FFFFFF" fill-rule="nonzero">
            <g id="Group-6" transform="translate(39.000000, 41.000000)">
                <g id="logo-uptoo" transform="translate(8.000000, 16.000000)">
                    <path d="M0,10.4164223 L0,5.93548387 L3.65566714,4.99287809 L3.65566714,10.6979472 C3.65566714,11.8709736 4.01888684,12.8211107 4.74533716,13.5483871 C5.47178748,14.2756635 6.40912865,14.6392962 7.55738881,14.6392962 C8.65878121,14.6392962 9.56683047,14.2756635 10.2815638,13.5483871 C10.9962972,12.8211107 11.3536585,11.8709736 11.3536585,10.6979472 L11.3536585,3.10766653 L15.0444763,2.16506075 L15.0444763,10.4164223 C15.0444763,12.6920935 14.3356121,14.5337173 12.9178623,15.941349 C11.5001125,17.3489807 9.71330585,18.0527859 7.55738881,18.0527859 C5.35460401,18.0527859 3.54436386,17.3548456 2.12661406,15.9589443 C0.708864265,14.5630429 0,12.715554 0,10.4164223 Z M35,9.00879765 C35,11.5894557 34.1974015,13.7419269 32.5921808,15.4662757 C30.98696,17.1906244 28.965818,18.0527859 26.5286944,18.0527859 C24.1384386,18.0527859 22.2168892,17.2199497 20.7639885,15.5542522 L20.7639885,24 L17.0731707,24 L17.0731707,1.74612484 L20.517934,0.908253037 L20.517934,2.81524927 C21.8302313,0.938407038 23.8337982,0 26.5286944,0 C28.965818,0 30.98696,0.862161458 32.5921808,2.58651026 C34.1974015,4.31085907 35,6.45160013 35,9.00879765 Z M29.6922525,13.0909091 C30.6999094,12.0351853 31.2037303,10.6862252 31.2037303,9.04398827 C31.2037303,7.40175132 30.6999094,6.04692616 29.6922525,4.97947214 C28.6845956,3.91201812 27.4309018,3.37829912 25.9311334,3.37829912 C24.4782328,3.37829912 23.2479725,3.87096282 22.2403156,4.85630499 C21.2326588,5.84164715 20.7288379,7.22579753 20.7288379,9.00879765 C20.7288379,10.8152583 21.2326588,12.2111388 22.2403156,13.1964809 C23.2479725,14.1818231 24.4782328,14.6744868 25.9311334,14.6744868 C27.4309018,14.6744868 28.6845956,14.1466328 29.6922525,13.0909091 Z" id="up"></path>
                </g>
            </g>
        </g>
    </g>
</svg>